<svg width="34" height="34" viewBox="0 0 34 34" fill="none" xmlns="http://www.w3.org/2000/svg">
<path d="M12.7498 17.0002C12.7498 17.7826 12.1156 18.4168 11.3332 18.4168C10.5508 18.4168 9.9165 17.7826 9.9165 17.0002C9.9165 16.2177 10.5508 15.5835 11.3332 15.5835C12.1156 15.5835 12.7498 16.2177 12.7498 17.0002Z" fill="white"/>
<path d="M18.4168 17.0002C18.4168 17.7826 17.7826 18.4168 17.0002 18.4168C16.2177 18.4168 15.5835 17.7826 15.5835 17.0002C15.5835 16.2177 16.2177 15.5835 17.0002 15.5835C17.7826 15.5835 18.4168 16.2177 18.4168 17.0002Z" fill="white"/>
<path d="M24.0833 17.0002C24.0833 17.7826 23.4491 18.4168 22.6667 18.4168C21.8842 18.4168 21.25 17.7826 21.25 17.0002C21.25 16.2177 21.8842 15.5835 22.6667 15.5835C23.4491 15.5835 24.0833 16.2177 24.0833 17.0002Z" fill="white"/>
<path d="M31.1668 17.0002C31.1668 23.6783 31.1668 27.0176 29.0921 29.0921C27.0176 31.1668 23.6783 31.1668 17.0002 31.1668C10.3219 31.1668 6.98281 31.1668 4.90816 29.0921C2.8335 27.0176 2.8335 23.6783 2.8335 17.0002C2.8335 10.3219 2.8335 6.98281 4.90816 4.90816C6.98281 2.8335 10.3219 2.8335 17.0002 2.8335C23.6783 2.8335 27.0176 2.8335 29.0921 4.90816C30.4717 6.28763 30.9339 8.22611 31.0888 11.3335" stroke="white" stroke-width="3" stroke-linecap="round"/>
</svg>
