<svg width="40" height="40" viewBox="0 0 40 40" fill="none" xmlns="http://www.w3.org/2000/svg">
<path d="M0 39.9998C0 21.1436 0 11.7155 5.85786 5.85768C11.7157 -0.000183105 21.1438 -0.000183105 40 -0.000183105C40 18.856 40 28.2841 34.1421 34.142C28.2843 39.9998 18.8562 39.9998 0 39.9998Z" fill="url(#paint0_radial_74_9698)"/>
<path d="M12 18.9998C11.4477 18.9998 11 19.4475 11 19.9998C11 20.5521 11.4477 20.9998 12 20.9998V18.9998ZM29.7071 20.7069C30.0976 20.3164 30.0976 19.6832 29.7071 19.2927L23.3431 12.9287C22.9526 12.5382 22.3195 12.5382 21.9289 12.9287C21.5384 13.3193 21.5384 13.9524 21.9289 14.343L27.5858 19.9998L21.9289 25.6567C21.5384 26.0472 21.5384 26.6804 21.9289 27.0709C22.3195 27.4614 22.9526 27.4614 23.3431 27.0709L29.7071 20.7069ZM12 20.9998H29V18.9998H12V20.9998Z" fill="white"/>
<defs>
<radialGradient id="paint0_radial_74_9698" cx="0" cy="0" r="1" gradientUnits="userSpaceOnUse" gradientTransform="translate(10.1463 -17.7421) rotate(70.3816) scale(76.7112 51.4029)">
<stop stop-color="#2FB1D9"/>
<stop offset="0.2635" stop-color="#38B0D6"/>
<stop offset="0.593354" stop-color="#2887BC"/>
<stop offset="1" stop-color="#6173D5"/>
</radialGradient>
</defs>
</svg>
